# xmcd
#
# Track frame offsets:
#	183
#	13918
#	38895
#	52548
#	68923
#	89153
#	107605
#	126708
#	145943
#	160635
#	176603
#	197358
#	211773
#	230640
#
# Disc length: 3334 seconds
#
# Revision: 3
# Processed by: cddbd v1.5.2PL0 Copyright (c) Steve Scherf et al.
# Submitted via: audiograbber 1.83.01
#
DISCID=c00d040e
DTITLE=Various Artist - Texas Roadhouse Blues
DYEAR=1995
DGENRE=Blues
TTITLE0=Kim Wilson - Baby Please Don't Lie To Me
TTITLE1=Doug Sahm - T-Bone Shuffle
TTITLE2=Doyle Bramhall - Change It
TTITLE3=Sue Foley - Howlin' For My Darlin'
TTITLE4=Lavelle White - Voodoo Man
TTITLE5=Lewis Cowdrey - No Flats
TTITLE6=Snooky Pryor - Hello Little Baby
TTITLE7=Teddy Morgan - Goin' Back Home
TTITLE8=Brothers Brooks - Straighten Up And Fly Right
TTITLE9=Pat McLaughlin - It's Hard
TTITLE10=Stephen Bruton - This Train Is Gone
TTITLE11=Glen Clark - Looking For A Connection
TTITLE12=David Halley - Losing Your Grip
TTITLE13=Loose Diamonds - Broadstrokes
EXTD=
EXTT0=Kim Wilson\n
EXTT1=Doug Sahm\n
EXTT2=Doyle Bramhall\n
EXTT3=Sue Foley\n
EXTT4=Lavelle White\n
EXTT5=Lewis Cowdrey\n
EXTT6=Snooky Pryor\n
EXTT7=Teddy Morgan\n
EXTT8=Brothers Brooks\n
EXTT9=Pat McLaughlin\n
EXTT10=Stephen Bruton\n
EXTT11=Glen Clark\n
EXTT12=David Halley\n
EXTT13=Loose Diamonds\n
PLAYORDER=
